<?xml version="1.0" encoding="utf-8"?>
<!-- Generator: Adobe Illustrator 16.0.0, SVG Export Plug-In . SVG Version: 6.00 Build 0)  -->
<!DOCTYPE svg PUBLIC "-//W3C//DTD SVG 1.1//EN" "http://www.w3.org/Graphics/SVG/1.1/DTD/svg11.dtd">
<svg version="1.1" id="Layer_1" xmlns="http://www.w3.org/2000/svg" xmlns:xlink="http://www.w3.org/1999/xlink" x="0px" y="0px"
	 width="500px" height="500px" viewBox="0 0 500 500" enable-background="new 0 0 500 500" xml:space="preserve">
<g>
	<path fill="#F89110" d="M298.281,363.776c-47.208,25.107-45.112,55.037-45.112,55.037c14.691-34.77,37.717-36.97,83.952-56
		c39.872-16.422,55.624-52.145,55.624-52.145C378.048,338.665,345.52,338.665,298.281,363.776z"/>
	<path fill="#F89110" d="M232.09,175.149l-42.503-54.132C191.25,146.367,208.488,167.692,232.09,175.149z"/>
	<path fill="#F89110" d="M224.121,299.468l-60.927-77.593C165.586,258.216,190.292,288.793,224.121,299.468z"/>
	<path fill="#F89110" d="M250.507,8.062c-133.742,0-242.161,108.41-242.161,242.164c0,133.742,108.419,242.158,242.161,242.158
		c133.748,0,242.157-108.416,242.157-242.158C492.664,116.471,384.255,8.062,250.507,8.062z M174.228,114.257
		c0.239-6.372,1.093-12.442,2.786-18.31c19.86-2.934,38.829,3.071,54.26,13.823c21.255,15.315,33.137,40.677,30.624,67.198
		c-0.045,0.827,0.192,0.151,0.192,0.151c27.332-5.262,48.41-29.083,49.431-58.054c0.1-2.861,0-5.688-0.28-8.456
		c-20.956,1.509-39.568,13.765-49.325,32.343c-2.715-7.553-4.993-12.599-6.952-15.18c11.982-16.982,34.459-34.94,68.905-31.982
		c2.209,7.588,3.205,15.478,2.908,23.794c-1.218,34.936-25.717,63.543-58.065,71.475l-22.505-28.613
		c-3.059-25.446-22.144-46.848-47.996-52.346l64.703,82.078c-19.821,3.287-39.28-1.486-54.895-11.941
		C186.777,166.035,173.284,141.688,174.228,114.257z M75.291,223.713c0,0,11.221,43.191,37.18,63.839
		c39.942,31.728,137.895,35.938,137.895,133.585C69.711,418.305,75.291,223.713,75.291,223.713z M189.61,306.766
		c-30.443-20.375-49.788-55.278-48.421-94.576c0.332-9.15,1.558-17.838,3.979-26.236c28.473-4.214,55.645,4.4,77.766,19.788
		c30.462,21.955,47.515,58.319,43.9,96.339c-0.059,1.177,0.28,0.214,0.28,0.214c39.166-7.545,69.4-41.687,70.846-83.223
		c0.146-4.103,0-8.141-0.402-12.124c-30.024,2.171-56.707,19.741-70.7,46.367c-3.898-10.828-7.156-18.054-9.959-21.77
		c17.168-24.326,49.382-50.055,98.766-45.813c3.169,10.866,4.573,22.168,4.155,34.103c-1.749,50.054-36.848,91.062-83.201,102.425
		l-32.283-41.005c-4.388-36.47-31.728-67.143-68.791-75.021l92.729,117.649C239.884,328.583,211.991,321.753,189.61,306.766z
		 M250.645,421.137c0-97.647,97.951-101.857,137.898-133.585c25.957-20.647,37.181-63.839,37.181-63.839
		S431.295,418.305,250.645,421.137z"/>
	<path fill="#F89110" d="M108.266,310.669c0,0,15.75,35.723,55.619,52.145c46.241,19.03,69.269,21.23,83.963,56
		c0,0,2.089-29.93-45.117-55.037C155.49,338.665,122.963,338.665,108.266,310.669z"/>
</g>
</svg>
